<svg width="99" height="43" viewBox="0 0 99 43" fill="none" xmlns="http://www.w3.org/2000/svg">
<path d="M15.5407 6.45074C15.2009 6.45074 15.157 6.62466 15.157 7.01992C15.157 7.11874 15.5105 7.39254 15.5605 7.42219L19.2778 10.1792C20.8067 11.3254 21.5711 12.862 21.5711 14.789C21.5711 16.3601 20.9016 17.7337 19.5626 18.9096C18.2535 20.0065 16.7858 20.1111 15.157 20.1111H7.48256H0V14.2257H11.2736C11.6134 14.2257 11.7832 14.0231 11.7832 13.618C11.7832 13.5488 11.7582 13.4895 11.7083 13.4401L8.2458 10.9351C6.89678 9.95683 6.22227 8.4647 6.22227 6.45873C6.22227 4.80849 6.8718 3.37565 8.17086 2.16021C9.46991 0.934886 10.9296 0 12.5984 0H24.1744V6.45074H19.9535H17.843H15.5407Z" fill="#770F0F"/>
<path d="M40.3884 6.45074L40.2907 20.1111H32.6163V6.45074H23.151V0H47.5814V6.45074H40.3884Z" fill="#770F0F"/>
<path d="M57.9167 6.74423L56.3578 12.6436H59.4755L57.9167 6.74423ZM61.3954 20.1111L60.8246 17.698H54.9938L54.4884 20.1111H46.4302L51.7712 1.01212e-06L64.2733 0L70.2209 20.1111L61.3954 20.1111Z" fill="#770F0F"/>
<path d="M86.312 7.08514C86.312 6.68 86.1571 6.32426 85.8474 6.01793C85.5476 5.71159 85.1928 5.55843 84.7831 5.55843H79.9267V8.59704H84.7831C85.1928 8.59704 85.5476 8.44387 85.8474 8.13754C86.1571 7.83121 86.312 7.48041 86.312 7.08514ZM88.6395 20.1111C86.9208 20.1111 85.1978 19.3878 83.5091 17.698L79.9267 14.1555V20.1111H71.7558V1.01212e-06H86.8217C88.7003 1.01212e-06 90.3691 0.676894 91.828 2.03068C93.267 3.38447 93.9865 4.98035 93.9865 6.81834C93.9865 8.19189 93.5767 9.46168 92.7573 10.6277C91.9479 11.7839 90.8937 12.609 89.5946 13.1031C89.9044 13.6367 90.3491 13.9035 90.9287 13.9035L99 14.2296V20.1111H88.6395Z" fill="#770F0F"/>
<path d="M26.3508 43H17.6422L15.8585 36.2409L14.0598 43H5.3661L0 22.7673H7.92923L9.71294 29.5115L11.5116 22.7673H20.2053L21.989 29.5115L23.7877 22.7673H31.7169L26.3508 43Z" fill="#770F0F"/>
<path d="M40.7476 29.5115L39.1887 35.4109H42.3064L40.7476 29.5115ZM44.33 43L43.6555 40.4654H37.8247L37.1652 43H29.2359L34.602 22.7673H46.8781L52.2592 43H44.33Z" fill="#770F0F"/>
<path d="M70.2233 43C68.5046 43 66.8008 42.1551 65.1121 40.4654L61.5297 36.9228V43H53.8552V29.0817V32.1203H61.5297H66.3861C66.7958 32.1203 67.1506 31.9721 67.4503 31.6756C67.7601 31.3693 67.915 31.0136 67.915 30.6084C67.915 30.2033 67.7601 29.8475 67.4503 29.5412C67.1506 29.2349 66.7958 29.0817 66.3861 29.0817H61.5297V32.1203H53.8552V29.0817V22.7673H68.4246C70.3033 22.7673 71.9721 23.4442 73.431 24.798C74.87 26.1518 75.5894 27.7477 75.5894 29.5857C75.5894 30.9592 75.1797 32.229 74.3603 33.395C73.5509 34.5512 72.4967 35.3763 71.1976 35.8704C71.5074 36.404 71.9521 36.6708 72.5317 36.6708H76.8785V43H70.2233Z" fill="#770F0F"/>
<path d="M90.75 29.2181C90.4103 29.2181 90.2859 29.2793 90.2859 29.6746C90.2859 29.7734 90.3109 29.8376 90.3609 29.8673L94.0782 32.6243C95.6071 33.7705 96.3715 35.3071 96.3715 37.2341C96.3715 38.8052 95.702 40.1788 94.363 41.3547C93.0539 42.4516 91.585 43 89.9562 43H75.9414V36.6708H86.074C86.4138 36.6708 86.5836 36.4682 86.5836 36.0631C86.5836 35.9939 86.5586 35.9346 86.5087 35.8852L83.0462 33.3802C81.6972 32.4019 81.0227 30.9098 81.0227 28.9038C81.0227 27.2536 81.6722 25.8208 82.9713 24.6053C84.2703 23.38 85.7542 22.7673 87.423 22.7673H99V29.2181H90.75Z" fill="#770F0F"/>
</svg>
